# xmcd CD database file
#
# Track frame offsets:
#	150
#	19202
#	41511
#	61939
#	82634
#	102249
#	120824
#	143985
#	169429
#	189000
#	211754
#	234230
#
# Disc length: 3472 seconds
#
# Revision: 0
# Processed by: cddbd v1.5.2PL0 Copyright (c) Steve Scherf et al.
# Submitted via: CDex 1.51
#
DISCID=8a0d8e0c
DTITLE=Chris Winters - Impressions
DYEAR=2002
DGENRE=Jazz
TTITLE0=Trials And Tribulations
TTITLE1=Stacy
TTITLE2=Mysterious Woman
TTITLE3=Sylvia's Mood
TTITLE4=Skippy The Peanut
TTITLE5=Love's Lament
TTITLE6=Back At The Jam
TTITLE7=Eye Of The Storm
TTITLE8=Skuffle
TTITLE9=Song For Alexander
TTITLE10=Ventura Blvd.
TTITLE11=Faith In Love
EXTD=YEAR: 2002
EXTT0=
EXTT1=
EXTT2=
EXTT3=
EXTT4=
EXTT5=
EXTT6=
EXTT7=
EXTT8=
EXTT9=
EXTT10=
EXTT11=
PLAYORDER=
